<?xml version="1.0" encoding="UTF-8"?>
<svg id="Layer_1" data-name="Layer 1" xmlns="http://www.w3.org/2000/svg" viewBox="0 0 32 32">
  <defs>
    <style>
      .cls-1 {
        fill: #fff;
      }
    </style>
  </defs>
  <path class="cls-1" d="M28,6c1.1,0,2,.9,2,2v16c0,1.1-.9,2-2,2H4c-1.1,0-2-.9-2-2V8c0-1.1.9-2,2-2h24M28,4H4C1.79,4,0,5.79,0,8v16c0,2.21,1.79,4,4,4h24c2.21,0,4-1.79,4-4V8c0-2.21-1.79-4-4-4h0Z"/>
  <path class="cls-1" d="M16.83,10.78c1.02,0,2.05.39,2.83,1.17,1.56,1.56,1.57,4.09,0,5.66-.78.78-1.81,1.17-2.84,1.17-.37,0-.74-.05-1.1-.15,0,.67-.27,1.31-.77,1.81-.52.52-1.2.78-1.88.78s-1.37-.26-1.89-.78c-1.05-1.05-1.05-2.72,0-3.77.5-.5,1.14-.76,1.81-.77-.4-1.36-.05-2.88,1.02-3.94.78-.78,1.81-1.17,2.83-1.17M16.83,8.78h0c-1.6,0-3.11.63-4.24,1.76-1.06,1.06-1.67,2.46-1.75,3.91-.39.21-.75.48-1.08.8-1.82,1.82-1.82,4.78,0,6.6.88.88,2.05,1.37,3.3,1.37s2.42-.49,3.3-1.37c.32-.32.6-.69.81-1.08,1.48-.08,2.85-.7,3.91-1.75,2.34-2.34,2.34-6.15,0-8.49-1.13-1.13-2.64-1.76-4.24-1.76h0Z"/>
</svg>